<svg width="24" height="22" xmlns="http://www.w3.org/2000/svg" xmlns:xlink="http://www.w3.org/1999/xlink" overflow="hidden"><defs><clipPath id="clip0"><rect x="858" y="548" width="24" height="22"/></clipPath><clipPath id="clip1"><rect x="859" y="548" width="23" height="22"/></clipPath><clipPath id="clip2"><rect x="859" y="548" width="23" height="22"/></clipPath><clipPath id="clip3"><rect x="859" y="548" width="23" height="22"/></clipPath></defs><g clip-path="url(#clip0)" transform="translate(-858 -548)"><g clip-path="url(#clip1)"><g clip-path="url(#clip2)"><g clip-path="url(#clip3)"><path d="M10.9952 2.29167C6.18837 2.29167 2.29167 6.18837 2.29167 10.9952 2.29167 15.802 6.18837 19.6987 10.9952 19.6987 15.802 19.6987 19.6987 15.802 19.6987 10.9952 19.6987 10.995 19.6987 10.9947 19.6987 10.9945 19.7004 6.1897 15.8066 2.29332 11.0018 2.29167 10.9996 2.29167 10.9974 2.29167 10.9952 2.29167ZM13.1035 11.4109C11.8355 12.6767 10.5598 13.9537 9.27644 15.2419 8.1859 14.1462 7.09278 13.053 5.99706 11.9625L7.09271 10.8669 9.27644 13.0506C10.3366 11.9752 11.3907 10.9073 12.4389 9.84706 13.4865 8.78694 14.066 8.21792 15.1525 7.16788 15.183 7.1374 15.2158 7.10715 15.2513 7.07621 15.2857 7.04701 15.3165 7.01378 15.3429 6.97721L16.4539 8.07285C15.1635 9.35619 14.3715 10.1445 13.1033 11.4102Z" fill="#172B74" fill-rule="nonzero" fill-opacity="1" transform="matrix(1.04545 0 0 1 859 548)"/></g></g></g></g></svg>